<svg width="250" height="84" viewBox="0 0 250 84" fill="none" xmlns="http://www.w3.org/2000/svg">
<path fill-rule="evenodd" clip-rule="evenodd" d="M64.7674 56.8283C65.1858 57.2467 65.7018 57.4558 66.3154 57.4558C66.9569 57.4558 67.4729 57.2467 67.8634 56.8283C68.2817 56.4099 68.4909 55.8939 68.4909 55.2803V26.9569C68.4909 26.3154 68.2817 25.7994 67.8634 25.4089C67.4729 24.9905 66.9569 24.7813 66.3154 24.7813C65.7018 24.7813 65.1858 24.9905 64.7674 25.4089C64.3491 25.7994 64.1399 26.3154 64.1399 26.9569V55.2803C64.1399 55.8939 64.3491 56.4099 64.7674 56.8283ZM235.571 57.1211C235.822 57.3443 236.128 57.4558 236.491 57.4558C236.881 57.4558 237.188 57.3443 237.411 57.1211C237.634 56.8701 237.746 56.5633 237.746 56.2007V35.8262C237.746 35.4358 237.634 35.129 237.411 34.9058C237.188 34.6827 236.881 34.5711 236.491 34.5711C236.128 34.5711 235.822 34.6827 235.571 34.9058C235.347 35.129 235.236 35.4358 235.236 35.8262V56.2007C235.236 56.5633 235.347 56.8701 235.571 57.1211ZM235.068 29.216C235.459 29.5786 235.919 29.7599 236.449 29.7599C237.007 29.7599 237.467 29.5786 237.83 29.216C238.22 28.8256 238.415 28.3514 238.415 27.7936C238.415 27.1521 238.206 26.6779 237.788 26.3711C237.397 26.0364 236.965 25.8691 236.491 25.8691C235.989 25.8691 235.529 26.0364 235.11 26.3711C234.72 26.6779 234.525 27.1521 234.525 27.7936C234.525 28.3514 234.706 28.8256 235.068 29.216ZM211.694 56.2007C213.479 57.2048 215.487 57.7069 217.718 57.7069C219.754 57.7069 221.567 57.2746 223.157 56.4099C224.723 55.5309 225.964 54.3542 226.881 52.8798V56.2007C226.881 56.5633 226.992 56.8701 227.215 57.1212C227.466 57.3443 227.773 57.4558 228.136 57.4558C228.526 57.4558 228.833 57.3443 229.056 57.1212C229.279 56.8701 229.391 56.5633 229.391 56.2007V46.0344C229.391 43.8031 228.875 41.8089 227.843 40.0518C226.839 38.2667 225.458 36.8722 223.701 35.8681C221.944 34.8361 219.95 34.3201 217.718 34.3201C215.487 34.3201 213.479 34.8361 211.694 35.8681C209.937 36.8722 208.542 38.2667 207.51 40.0518C206.506 41.8089 206.004 43.8031 206.004 46.0344C206.004 48.2378 206.506 50.232 207.51 52.0171C208.542 53.7742 209.937 55.1688 211.694 56.2007ZM222.404 54.1507C221.037 54.9596 219.475 55.364 217.718 55.364C215.989 55.364 214.427 54.9596 213.033 54.1507C211.638 53.314 210.536 52.1984 209.727 50.8038C208.919 49.3814 208.514 47.7916 208.514 46.0344C208.514 44.2494 208.919 42.6596 209.727 41.265C210.536 39.8426 211.638 38.7269 213.033 37.9181C214.427 37.0814 215.989 36.663 217.718 36.663C219.475 36.663 221.037 37.0814 222.404 37.9181C223.799 38.7269 224.886 39.8426 225.667 41.265C226.476 42.6596 226.881 44.2494 226.881 46.0344C226.881 47.7916 226.476 49.3814 225.667 50.8038C224.886 52.1984 223.799 53.314 222.404 54.1507ZM200.558 58.1252C199.944 58.1252 199.428 57.916 199.01 57.4977C198.62 57.1072 198.424 56.6052 198.424 55.9916C198.424 55.3779 198.634 54.8759 199.052 54.4854C199.47 54.095 199.972 53.8997 200.558 53.8997C201.144 53.8997 201.632 54.1089 202.022 54.5273C202.441 54.9177 202.65 55.4058 202.65 55.9916C202.65 56.5773 202.441 57.0793 202.022 57.4977C201.632 57.916 201.144 58.1252 200.558 58.1252ZM179.929 56.1589C181.742 57.1351 183.806 57.6232 186.12 57.6232C187.403 57.6232 188.742 57.3861 190.137 56.9119C191.559 56.4378 192.745 55.8242 193.693 55.0711C194.167 54.7085 194.39 54.2762 194.362 53.7742C194.334 53.2722 194.083 52.8119 193.609 52.3936C193.247 52.0868 192.814 51.9473 192.312 51.9752C191.838 51.9752 191.392 52.1286 190.974 52.4354C190.416 52.8538 189.677 53.2303 188.756 53.565C187.864 53.8718 186.985 54.0252 186.12 54.0252C184.531 54.0252 183.122 53.6766 181.895 52.9793C180.668 52.282 179.706 51.3337 179.008 50.1344C178.541 49.3309 178.23 48.4524 178.076 47.4987H193.986C194.544 47.4987 195.004 47.3313 195.366 46.9966C195.729 46.6341 195.91 46.1878 195.91 45.6579C195.91 43.4545 195.492 41.516 194.655 39.8426C193.846 38.1412 192.661 36.8164 191.099 35.8681C189.537 34.8919 187.668 34.4038 185.493 34.4038C183.29 34.4038 181.337 34.9058 179.636 35.9099C177.934 36.8861 176.596 38.2528 175.619 40.0099C174.671 41.7392 174.197 43.7473 174.197 46.0344C174.197 48.2936 174.699 50.3017 175.703 52.0589C176.735 53.7881 178.144 55.1548 179.929 56.1589ZM178.124 44.1517C178.268 43.3581 178.507 42.619 178.841 41.9344C179.427 40.7072 180.277 39.7449 181.393 39.0477C182.536 38.3504 183.903 38.0017 185.493 38.0017C186.887 38.0017 188.073 38.3225 189.049 38.964C190.025 39.6055 190.778 40.4841 191.308 41.5997C191.685 42.3729 191.935 43.2236 192.058 44.1517H178.124ZM168.157 57.4558C166.763 57.4558 165.507 57.1072 164.392 56.4099C163.276 55.6847 162.398 54.7086 161.756 53.4813C161.115 52.2541 160.794 50.8735 160.794 49.3395V39.0058H158.869C158.284 39.0058 157.81 38.8385 157.447 38.5038C157.084 38.1691 156.903 37.7507 156.903 37.2487C156.903 36.6909 157.084 36.2446 157.447 35.9099C157.81 35.5752 158.284 35.4079 158.869 35.4079H160.794V29.3834C160.794 28.7698 160.989 28.2677 161.38 27.8773C161.77 27.4868 162.272 27.2915 162.886 27.2915C163.499 27.2915 164.001 27.4868 164.392 27.8773C164.782 28.2677 164.978 28.7698 164.978 29.3834V35.4079H168.534C169.119 35.4079 169.594 35.5752 169.956 35.9099C170.319 36.2446 170.5 36.6909 170.5 37.2487C170.5 37.7507 170.319 38.1691 169.956 38.5038C169.594 38.8385 169.119 39.0058 168.534 39.0058H164.978V49.3395C164.978 50.4552 165.284 51.3895 165.898 52.1426C166.512 52.8956 167.265 53.2722 168.157 53.2722H169.58C170.082 53.2722 170.5 53.4674 170.835 53.8579C171.197 54.2484 171.379 54.7504 171.379 55.364C171.379 55.9776 171.141 56.4796 170.667 56.8701C170.221 57.2606 169.635 57.4558 168.91 57.4558H168.157ZM136.913 56.1171C138.531 57.1211 140.358 57.6232 142.394 57.6232C144.43 57.6232 146.257 57.1211 147.875 56.1171C148.872 55.481 149.736 54.7125 150.468 53.8115V55.364C150.468 55.9776 150.664 56.4936 151.054 56.9119C151.472 57.3024 151.988 57.4977 152.602 57.4977C153.216 57.4977 153.718 57.3024 154.108 56.9119C154.527 56.4936 154.736 55.9776 154.736 55.364V46.0344C154.736 43.831 154.22 41.8507 153.188 40.0936C152.184 38.3364 150.817 36.9558 149.088 35.9517C147.359 34.9198 145.406 34.4038 143.231 34.4038C141.055 34.4038 139.089 34.9198 137.332 35.9517C135.602 36.9558 134.222 38.3364 133.19 40.0936C132.186 41.8507 131.684 43.831 131.684 46.0344C131.684 48.2378 132.144 50.2181 133.064 51.9752C134.013 53.7045 135.296 55.0851 136.913 56.1171ZM147.038 52.8538C145.922 53.5232 144.653 53.8579 143.231 53.8579C141.836 53.8579 140.567 53.5232 139.423 52.8538C138.308 52.1565 137.415 51.2222 136.746 50.0507C136.104 48.8514 135.784 47.5126 135.784 46.0344C135.784 44.5283 136.104 43.1895 136.746 42.0181C137.415 40.8188 138.308 39.8844 139.423 39.215C140.567 38.5177 141.836 38.1691 143.231 38.1691C144.653 38.1691 145.922 38.5177 147.038 39.215C148.153 39.8844 149.032 40.8188 149.673 42.0181C150.315 43.1895 150.636 44.5283 150.636 46.0344C150.636 47.5126 150.315 48.8514 149.673 50.0507C149.032 51.2222 148.153 52.1565 147.038 52.8538ZM119.623 55.364V43.1477C119.623 41.8647 120.027 40.8048 120.836 39.9681C121.673 39.1314 122.802 38.5596 124.225 38.2528C125.647 37.946 127.251 37.9739 129.036 38.3365C129.398 38.4201 129.733 38.4341 130.04 38.3783C130.347 38.3225 130.612 38.197 130.835 38.0018C131.086 37.7786 131.253 37.4718 131.337 37.0814C131.532 36.3283 131.211 35.6868 130.375 35.1569C129.566 34.599 128.325 34.3201 126.651 34.3201C124.978 34.3201 123.444 34.7106 122.049 35.4916C121.115 36.0146 120.306 36.6627 119.623 37.4358V36.663C119.623 35.9657 119.441 35.4497 119.079 35.115C118.744 34.7524 118.228 34.5711 117.531 34.5711C116.861 34.5711 116.345 34.7524 115.983 35.115C115.62 35.4776 115.439 35.9936 115.439 36.663V55.364C115.439 56.0613 115.62 56.5912 115.983 56.9538C116.345 57.2885 116.861 57.4558 117.531 57.4558C118.228 57.4558 118.744 57.2746 119.079 56.912C119.441 56.5494 119.623 56.0334 119.623 55.364ZM95.2697 56.1589C97.0826 57.1351 99.1466 57.6232 101.462 57.6232C102.745 57.6232 104.083 57.3861 105.478 56.9119C106.9 56.4378 108.086 55.8242 109.034 55.0711C109.508 54.7085 109.731 54.2762 109.703 53.7742C109.675 53.2722 109.424 52.8119 108.95 52.3936C108.588 52.0868 108.155 51.9473 107.653 51.9752C107.179 51.9752 106.733 52.1286 106.315 52.4354C105.757 52.8538 105.018 53.2303 104.097 53.565C103.205 53.8718 102.326 54.0252 101.462 54.0252C99.8717 54.0252 98.4632 53.6766 97.236 52.9793C96.0088 52.282 95.0466 51.3337 94.3493 50.1344C93.8822 49.3309 93.5715 48.4524 93.4173 47.4987H109.327C109.885 47.4987 110.345 47.3313 110.707 46.9966C111.07 46.6341 111.251 46.1878 111.251 45.6579C111.251 43.4545 110.833 41.516 109.996 39.8426C109.187 38.1412 108.002 36.8164 106.44 35.8681C104.878 34.8919 103.009 34.4038 100.834 34.4038C98.6306 34.4038 96.6782 34.9058 94.9768 35.9099C93.2755 36.8861 91.9367 38.2528 90.9605 40.0099C90.0122 41.7392 89.5381 43.7473 89.5381 46.0344C89.5381 48.2936 90.0401 50.3017 91.0442 52.0589C92.0762 53.7881 93.4847 55.1548 95.2697 56.1589ZM93.4652 44.1517H107.399C107.276 43.2236 107.026 42.3729 106.649 41.5997C106.119 40.4841 105.366 39.6055 104.39 38.964C103.414 38.3225 102.229 38.0017 100.834 38.0017C99.2442 38.0017 97.8775 38.3504 96.734 39.0477C95.6183 39.7449 94.7677 40.7072 94.1819 41.9344C93.8476 42.619 93.6087 43.3581 93.4652 44.1517ZM83.4982 57.4558C82.1037 57.4558 80.8486 57.1072 79.7329 56.4099C78.6173 55.6847 77.7387 54.7086 77.0972 53.4813C76.4557 52.2541 76.135 50.8735 76.135 49.3395V39.0058H74.2105C73.6248 39.0058 73.1506 38.8385 72.788 38.5038C72.4254 38.1691 72.2441 37.7507 72.2441 37.2487C72.2441 36.6909 72.4254 36.2446 72.788 35.9099C73.1506 35.5752 73.6248 35.4079 74.2105 35.4079H76.135V29.3834C76.135 28.7698 76.3302 28.2677 76.7207 27.8773C77.1111 27.4868 77.6132 27.2915 78.2268 27.2915C78.8404 27.2915 79.3424 27.4868 79.7329 27.8773C80.1234 28.2677 80.3186 28.7698 80.3186 29.3834V35.4079H83.8748C84.4605 35.4079 84.9346 35.5752 85.2972 35.9099C85.6598 36.2446 85.8411 36.6909 85.8411 37.2487C85.8411 37.7507 85.6598 38.1691 85.2972 38.5038C84.9346 38.8385 84.4605 39.0058 83.8748 39.0058H80.3186V49.3395C80.3186 50.4552 80.6254 51.3895 81.239 52.1426C81.8526 52.8956 82.6057 53.2722 83.4982 53.2722H84.9207C85.4227 53.2722 85.8411 53.4674 86.1758 53.8579C86.5384 54.2484 86.7196 54.7504 86.7196 55.364C86.7196 55.9776 86.4826 56.4796 86.0084 56.8701C85.5622 57.2606 84.9765 57.4558 84.2513 57.4558H83.4982Z" fill="#191D20"/>
<path d="M22.725 14.8426C24.1801 14.8426 25.417 16.0795 25.417 17.5346C25.417 18.9898 24.1801 20.2267 22.725 20.2267C21.2698 20.2267 20.0329 18.9898 20.0329 17.5346C20.0329 16.0795 21.2698 14.8426 22.725 14.8426ZM22.725 13.2419C20.3967 13.2419 18.505 15.1336 18.505 17.4619C18.505 19.7901 20.3967 21.6818 22.725 21.6818C25.0532 21.6818 26.9449 19.7901 26.9449 17.4619C26.9449 15.1336 25.0532 13.2419 22.725 13.2419Z" fill="#336FE4"/>
<path d="M28.3273 1.52791C30.3645 1.52791 31.9652 3.20134 31.9652 5.1658C31.9652 7.13026 30.2918 8.80369 28.3273 8.80369C26.3628 8.80369 24.6894 7.13026 24.6894 5.1658C24.6894 3.20134 26.3628 1.52791 28.3273 1.52791ZM28.3273 0C25.4897 0 23.1615 2.32825 23.1615 5.1658C23.1615 8.00335 25.4897 10.3316 28.3273 10.3316C31.1649 10.3316 33.4931 8.00335 33.4931 5.1658C33.4931 2.32825 31.2376 0 28.3273 0Z" fill="#336FE4"/>
<path d="M16.0313 7.13027C16.9044 7.13027 17.5592 7.78509 17.5592 8.65818C17.5592 9.53128 16.9044 10.1861 16.0313 10.1861C15.1582 10.1861 14.5034 9.53128 14.5034 8.65818C14.5034 7.78509 15.231 7.13027 16.0313 7.13027ZM16.0313 5.60236C14.3579 5.60236 12.9755 6.98475 12.9755 8.65818C12.9755 10.3316 14.3579 11.714 16.0313 11.714C17.7047 11.714 19.0871 10.3316 19.0871 8.65818C19.0871 6.98475 17.7775 5.60236 16.0313 5.60236Z" fill="#336FE4"/>
<path d="M9.77413 82.7487C6.25266 82.7487 3.10224 80.9298 1.33423 77.8885C-0.433783 74.8327 -0.448335 71.1875 1.3124 68.1244L11.7895 49.935L12.0223 49.5421C12.0514 52.4888 13.2883 54.6715 13.3684 54.8097L22.3976 70.4527L17.8793 78.2377C17.7702 78.4196 15.1655 82.7487 9.91965 82.7487H9.77413Z" fill="#336FE4"/>
<path d="M15.3182 82.676C17.8502 81.1771 19.1307 79.0308 19.2108 78.8926L28.24 63.2496H37.2038C37.4148 63.2496 42.4278 63.3224 45.0834 67.9061L45.1344 68.0153C46.9097 71.1148 46.8951 74.7599 45.1344 77.8157C43.3736 80.857 40.2159 82.676 36.6945 82.676H15.3182Z" fill="#EFC72D"/>
<path d="M42.3987 63.337C39.8376 61.8963 37.3638 61.8672 37.211 61.8672H19.1526L14.6343 54.0822C14.5252 53.9003 12.0514 49.4984 14.7071 44.9947C14.8526 44.7255 15.2528 44.0198 15.5147 43.7069L15.682 43.5032V26.9653H14.4451C14.045 26.9653 13.7176 26.6379 13.7176 26.2378C13.7176 25.8376 14.045 25.5102 14.4451 25.5102H32.198C32.5982 25.5102 32.9256 25.8376 32.9256 26.2378C32.9256 26.6379 32.5982 26.9653 32.198 26.9653H30.8156V43.4959L30.9757 43.6924C31.2522 44.0343 31.5068 44.3617 31.696 44.7255L42.4132 63.3297L42.3987 63.337Z" fill="#EC4F31"/>
</svg>
